<svg width="25" height="25" viewBox="0 0 25 25" fill="none" xmlns="http://www.w3.org/2000/svg">
<path d="M14.2604 7.81146C13.3031 6.80625 12.6177 5.61875 12.5938 4.56563C13.276 4.37083 14.6948 4.56667 16.0833 5.14687C17.4937 5.73646 18.8625 6.72396 19.3729 8.09583C19.3875 8.13646 19.4031 8.17708 19.4156 8.21667C19.3438 8.65539 19.1532 9.06607 18.8646 9.40416C18.5938 9.69479 18.2542 9.91146 17.8771 10.0344C16.6865 9.79479 15.3104 8.91562 14.2604 7.81146ZM20.074 10.149C19.0771 10.4969 18.1583 11.5146 17.4979 12.7344C16.7719 14.0719 16.3594 15.651 16.4979 16.8573C16.7323 17.1771 17.0427 17.4333 17.4031 17.6C17.8135 17.7698 18.2635 17.824 18.7021 17.7573C18.7417 17.7292 18.775 17.7021 18.8063 17.6792C19.9552 16.7708 20.4729 15.1656 20.5979 13.6427C20.7219 12.1458 20.4708 10.7365 20.074 10.149ZM11.8042 6.61875C11.8043 6.222 11.7028 5.83182 11.5094 5.48542C11.2771 5.10725 10.9457 4.79995 10.551 4.59688L10.4229 4.59896C8.95834 4.65938 7.59584 5.65417 6.59792 6.81354C5.61771 7.95104 4.99063 9.23958 4.96667 9.94791C5.97605 10.2479 7.31771 9.96562 8.5698 9.36562V9.36771C9.9448 8.71041 11.2073 7.675 11.8042 6.61875ZM8.29167 15.251C8.09063 13.7417 7.4948 12.2229 6.67396 11.3271C6.29622 11.2052 5.89373 11.1812 5.50417 11.2573C5.07188 11.3604 4.67709 11.5802 4.36147 11.8927L4.32397 12.0156C3.92813 13.4271 4.45417 15.0292 5.24688 16.3344C6.02709 17.6187 7.06042 18.6104 7.72813 18.8531C8.32917 17.9865 8.47605 16.625 8.29063 15.25L8.29167 15.251ZM13.8094 17.3344C12.3104 17.0594 10.6802 17.1552 9.575 17.6583C9.34149 17.9789 9.19409 18.3541 9.14688 18.7479C9.11146 19.1917 9.19896 19.6354 9.4 20.0323C9.43438 20.0583 9.4698 20.0812 9.50417 20.1031C10.725 20.9146 12.4135 20.9094 13.9031 20.5594C15.3667 20.2135 16.6313 19.5406 17.0688 18.9812C16.4292 18.1406 15.176 17.5812 13.8104 17.3312L13.8094 17.3344ZM25 12.5C25 19.3979 19.4125 24.9917 12.5156 25C5.61146 25.0083 0.00834264 19.4187 9.30582e-06 12.5156C-0.00832402 5.61146 5.58126 0.00833565 12.4844 2.32494e-06H12.4854C19.3927 -0.00416434 24.9958 5.59271 25 12.5ZM23.3885 12.5C23.3854 6.48125 18.5031 1.60521 12.4844 1.60833C6.4698 1.61563 1.59897 6.49687 1.60626 12.5125C1.61355 18.5281 6.4948 23.3979 12.5104 23.3906C18.5208 23.3833 23.3885 18.5104 23.3885 12.5Z" fill="black"/>
</svg>
