<svg width="28" height="23" viewBox="0 0 28 23" fill="none" xmlns="http://www.w3.org/2000/svg">
<path d="M0.0470169 10.1609C-0.233918 13.5321 0.749353 16.3414 2.85636 18.8698C4.96337 21.3982 7.77272 22.522 11.1439 22.522H25.1907C25.893 22.522 26.5953 22.241 27.1572 21.6792C27.7191 21.1173 28 20.415 28 19.7126V18.5889C28 17.7461 27.8595 16.7628 27.7191 15.4986H16.2008C14.7961 15.4986 13.6723 14.9367 12.6891 13.9535C11.7058 12.9702 11.1439 11.706 11.1439 10.4418C11.1439 8.19431 12.1272 6.64918 14.2342 5.80637L20.9766 2.85656C18.5887 1.17095 15.7793 0.187682 12.5486 0.0472151C9.45832 -0.233719 6.64898 0.749551 4.12057 2.71609C1.59216 4.68263 0.327951 7.07058 0.0470169 10.1609ZM13.9533 10.4418C13.9533 11.0037 14.2342 11.5655 14.6556 11.9869C15.077 12.4083 15.6389 12.6893 16.2008 12.6893H27.1572C26.3144 9.59899 25.0502 7.07058 23.2241 5.10404L15.3579 8.33478C14.3747 8.61572 13.9533 9.31805 13.9533 10.4418Z" fill="black"/>
</svg>
