<svg width="25" height="25" viewBox="0 0 25 25" fill="none" xmlns="http://www.w3.org/2000/svg">
<path d="M20.6927 4.632e-05C20.5491 0.00169526 20.524 0.0323335 20.5215 0.0351527C20.519 0.038025 20.4922 0.0673335 20.511 0.209727C20.5299 0.352121 20.6046 0.574355 20.7427 0.828185C21.0188 1.33584 21.5364 1.97005 22.2103 2.55377C22.8841 3.13755 23.5856 3.55936 24.1274 3.76026C24.3984 3.86068 24.629 3.90297 24.7727 3.90132C24.9163 3.89973 24.9414 3.86909 24.9439 3.86622C24.9464 3.86334 24.9731 3.83409 24.9543 3.6917C24.9354 3.5493 24.8607 3.32707 24.7226 3.07324C24.4465 2.56558 23.9289 1.93138 23.2551 1.3476C22.5812 0.763876 21.8796 0.342068 21.3378 0.141163C21.0669 0.0406846 20.8364 -0.00160262 20.6927 4.632e-05ZM12.5 2.00898C5.59644 2.00898 0 7.60542 0 14.509C0 17.8573 1.31649 20.8981 3.46011 23.1421C-1.39606 25.7361 8.94484 24.7217 12.5 24.7217C16.046 24.7217 25.9833 26.1664 23.0807 21.8133C24.6173 19.1074 25 17.8665 25 14.509C25 11.0604 23.6034 7.93813 21.3451 5.67659L17.5621 7.91946L19.2013 3.95563C17.2645 2.72324 14.9657 2.00898 12.5 2.00898ZM20.7988 2.59781L19.5446 5.631L22.3679 3.95701L21.5838 3.27787L21.5834 3.27749L21.583 3.27707L20.7988 2.59781ZM12.5 6.37068C16.989 6.37068 20.6383 10.02 20.6383 14.509C20.6383 18.998 16.989 22.6473 12.5 22.6473C8.01101 22.6473 4.3617 18.998 4.3617 14.509C4.3617 10.02 8.01101 6.37068 12.5 6.37068ZM12.5 7.32813C11.414 7.32813 10.3853 7.56856 9.4633 7.99845C10.0775 9.74739 11.1286 11.9558 12.5 11.9558C13.8736 11.9558 14.8897 9.74037 15.5187 7.9901C14.6013 7.56547 13.5789 7.32813 12.5 7.32813ZM17.7528 9.60898C16.2786 10.7336 14.5005 12.417 14.9246 13.7221C15.3491 15.0287 17.7707 15.3103 19.6298 15.3677C19.6632 15.0861 19.6809 14.7997 19.6809 14.509C19.6809 12.6131 18.9492 10.8913 17.7528 9.60898ZM7.23527 9.62191C6.0459 10.9028 5.31915 12.6195 5.31915 14.509C5.31915 14.8042 5.33723 15.095 5.3717 15.3808C7.22452 15.3369 9.64729 15.0195 10.0709 13.7159C10.495 12.4105 8.70489 10.761 7.23527 9.62191ZM10.9687 11.9433C10.8816 11.9458 10.7968 11.972 10.7235 12.0191C10.6503 12.0662 10.5912 12.1324 10.5528 12.2106C10.5143 12.2888 10.4979 12.376 10.5054 12.4628C10.5128 12.5496 10.5438 12.6327 10.595 12.7032C10.6435 12.7699 10.7084 12.823 10.7834 12.8573C10.8584 12.8916 10.9411 12.9059 11.0232 12.8988C11.1054 12.8918 11.1844 12.8636 11.2525 12.8171C11.3206 12.7705 11.3755 12.7072 11.4119 12.6331C11.4483 12.5591 11.465 12.4769 11.4603 12.3946C11.4556 12.3122 11.4297 12.2325 11.3851 12.1631C11.3405 12.0937 11.2787 12.037 11.2058 11.9985C11.1328 11.96 11.0511 11.941 10.9687 11.9433ZM14.0313 11.9433C13.9489 11.941 13.8672 11.96 13.7942 11.9985C13.7213 12.037 13.6595 12.0937 13.6149 12.1631C13.5703 12.2325 13.5444 12.3122 13.5397 12.3946C13.535 12.4769 13.5517 12.5591 13.5881 12.6331C13.6245 12.7072 13.6794 12.7705 13.7475 12.8171C13.8156 12.8636 13.8946 12.8918 13.9768 12.8988C14.0589 12.9059 14.1416 12.8916 14.2166 12.8573C14.2916 12.823 14.3565 12.7699 14.405 12.7032C14.4562 12.6327 14.4872 12.5496 14.4946 12.4628C14.5021 12.376 14.4857 12.2888 14.4472 12.2106C14.4088 12.1324 14.3497 12.0662 14.2765 12.0191C14.2032 11.972 14.1184 11.9458 14.0313 11.9433ZM12.5 12.8069C11.5599 12.8069 10.7979 13.5689 10.7979 14.509C10.7979 15.449 11.5599 16.2111 12.5 16.2111C13.4401 16.2111 14.2021 15.449 14.2021 14.509C14.2021 13.5689 13.4401 12.8069 12.5 12.8069ZM10.0374 14.8301C9.96243 14.8312 9.88876 14.8498 9.82232 14.8846C9.75589 14.9193 9.69854 14.9692 9.65491 15.0302C9.61127 15.0911 9.58256 15.1615 9.57109 15.2356C9.55962 15.3097 9.56572 15.3854 9.58888 15.4567C9.62812 15.5775 9.71371 15.6777 9.82683 15.7353C9.93995 15.793 10.0713 15.8033 10.1921 15.7641C10.301 15.7287 10.3937 15.6554 10.4532 15.5575C10.5128 15.4596 10.5352 15.3436 10.5165 15.2306C10.4978 15.1175 10.4391 15.0149 10.3512 14.9415C10.2633 14.868 10.152 14.8285 10.0374 14.8301ZM14.9365 14.8304C14.817 14.8352 14.7036 14.8846 14.6186 14.9688C14.5337 15.053 14.4833 15.166 14.4775 15.2855C14.4717 15.405 14.5108 15.5223 14.5872 15.6144C14.6636 15.7065 14.7717 15.7666 14.8902 15.783C15.0087 15.7993 15.129 15.7707 15.2275 15.7028C15.326 15.6349 15.3955 15.5325 15.4222 15.4159C15.449 15.2993 15.4312 15.177 15.3722 15.0729C15.3133 14.9688 15.2175 14.8905 15.1037 14.8535C15.0498 14.836 14.9932 14.8282 14.9365 14.8304ZM10.0753 16.3046C8.92692 16.3102 7.40298 17.1999 6.22298 18.0029C7.23516 19.8204 9.0134 21.1499 11.1242 21.5581C11.6556 19.782 12.104 17.3763 10.9941 16.5699C10.7359 16.3823 10.423 16.3029 10.0753 16.3046ZM14.9166 16.3057C14.5666 16.3057 14.2521 16.3863 13.9939 16.5739C12.8825 17.3814 13.3629 19.771 13.8829 21.5567C15.9939 21.1464 17.7716 19.8142 18.7818 17.9944C17.6113 17.1846 16.0725 16.3057 14.9166 16.3056V16.3057ZM12.5 16.6143C12.373 16.6143 12.2513 16.6647 12.1615 16.7545C12.0717 16.8443 12.0213 16.9661 12.0213 17.093C12.0213 17.22 12.0717 17.3418 12.1615 17.4315C12.2513 17.5213 12.373 17.5717 12.5 17.5717C12.627 17.5717 12.7487 17.5213 12.8385 17.4315C12.9283 17.3418 12.9787 17.22 12.9787 17.093C12.9787 16.9661 12.9283 16.8443 12.8385 16.7545C12.7487 16.6647 12.627 16.6143 12.5 16.6143Z" fill="black"/>
</svg>
