<svg width="23" height="25" viewBox="0 0 23 25" fill="none" xmlns="http://www.w3.org/2000/svg">
<path d="M22.5003 12.5C22.5003 19.4037 19.9103 25 16.7141 25H7.07156C8.15531 24.2987 9.14156 23.0625 9.82156 21.595C10.9128 19.235 11.5716 16.02 11.5716 12.5C11.5716 8.98125 10.9128 5.765 9.82156 3.405C9.14031 1.93625 8.15406 0.7 7.07031 0H16.7128C19.9103 0 22.5003 5.59625 22.5003 12.5Z" fill="black"/>
<path fill-rule="evenodd" clip-rule="evenodd" d="M1.6375 3.9175C0.6375 6.0825 0 9.11625 0 12.5C0 15.8837 0.63625 18.9175 1.6375 21.0825C2.6675 23.305 3.95625 24.375 5.1425 24.375C6.33 24.375 7.61875 23.305 8.6475 21.0825C9.65 18.9175 10.285 15.885 10.285 12.5C10.285 9.11625 9.65 6.0825 8.6475 3.9175C7.61875 1.695 6.33 0.625 5.1425 0.625C3.955 0.625 2.6675 1.695 1.6375 3.9175ZM3.21375 12.5C3.21375 16.6425 4.0775 20 5.1425 20C6.12625 20 6.9375 17.1375 7.05625 13.4375H5.7875C5.66253 13.4395 5.5384 13.4168 5.42222 13.3707C5.30604 13.3246 5.20009 13.2561 5.11045 13.169C5.0208 13.0819 4.94922 12.978 4.89981 12.8632C4.8504 12.7484 4.82413 12.625 4.8225 12.5C4.82413 12.375 4.8504 12.2516 4.89981 12.1368C4.94922 12.022 5.0208 11.9181 5.11045 11.831C5.20009 11.7439 5.30604 11.6754 5.42222 11.6293C5.5384 11.5832 5.66253 11.5605 5.7875 11.5625H7.0575C6.9375 7.8625 6.12625 5 5.14375 5C4.07625 5 3.21375 8.3575 3.21375 12.5Z" fill="black"/>
</svg>
