<svg width="21" height="31" viewBox="0 0 21 31" fill="none" xmlns="http://www.w3.org/2000/svg">
<path d="M6.84615 14.0863C4.03746 14.9683 2 17.5928 2 20.6923C2 24.5159 5.09946 27.6154 8.92308 27.6154C10.1387 27.6166 11.3333 27.2973 12.3861 26.6896C13.439 26.0818 14.3129 25.2072 14.9198 24.1538" stroke="black" stroke-width="4" stroke-linecap="round"/>
<path d="M21.3846 13.0769C18.6154 13.0769 16.1923 12.7308 11.6923 11V19.3077H21.3846V29" stroke="black" stroke-width="4" stroke-linecap="round" stroke-linejoin="round"/>
<path d="M11.6923 7.53846C13.2217 7.53846 14.4616 6.29864 14.4616 4.76923C14.4616 3.23983 13.2217 2 11.6923 2C10.1629 2 8.9231 3.23983 8.9231 4.76923C8.9231 6.29864 10.1629 7.53846 11.6923 7.53846Z" fill="black" stroke="black" stroke-width="4"/>
</svg>
